<svg width="113" height="56" viewBox="0 0 113 56" fill="none" xmlns="http://www.w3.org/2000/svg">
<path fill-rule="evenodd" clip-rule="evenodd" d="M65.8509 39.1993C61.3709 42.5033 54.8749 44.2393 49.2749 44.2393C41.4349 44.2393 34.3789 41.3273 29.0029 36.5113C28.6109 36.1193 28.9469 35.6153 29.4509 35.8953C35.2189 39.2553 42.3309 41.2713 49.7229 41.2713C54.7069 41.2713 60.1389 40.2633 65.1789 38.1353C65.9629 37.7993 66.5789 38.6393 65.8509 39.1993Z" fill="black"/>
<path fill-rule="evenodd" clip-rule="evenodd" d="M67.6998 37.0705C67.1398 36.3425 63.8918 36.7345 62.4918 36.9025C62.0438 36.9585 61.9878 36.5665 62.3798 36.2865C64.9558 34.4945 69.1558 34.9985 69.6598 35.6145C70.1638 36.2305 69.5478 40.4305 67.1398 42.4465C66.7478 42.7825 66.4118 42.6145 66.5798 42.1665C67.0838 40.8225 68.3158 37.7985 67.6998 37.0705Z" fill="black"/>
<path fill-rule="evenodd" clip-rule="evenodd" d="M62.6031 23.5192V21.7832C62.6031 21.5032 62.8271 21.3352 63.0511 21.3352H70.8911C71.1151 21.3352 71.3391 21.5032 71.3391 21.7832V23.2952C71.3391 23.5752 71.1151 23.8552 70.7231 24.4152L66.6351 30.2392C68.1471 30.1832 69.7151 30.4072 71.1151 31.1912C71.4511 31.3592 71.5071 31.6392 71.5071 31.8632V33.7112C71.5071 33.9912 71.2271 34.2712 70.9471 34.1032C68.5391 32.8152 65.3471 32.7032 62.6591 34.1032C62.3791 34.2712 62.0991 33.9352 62.0991 33.7112V31.9192C62.0991 31.6392 62.0991 31.1352 62.3791 30.7432L67.0831 23.9672H62.9951C62.7711 23.9672 62.6031 23.7992 62.6031 23.5192Z" fill="black"/>
<path fill-rule="evenodd" clip-rule="evenodd" d="M33.9317 34.4961H31.5237C31.2997 34.4961 31.1317 34.3281 31.0757 34.1041V21.8401C31.0757 21.6161 31.2997 21.3921 31.5237 21.3921H33.7637C33.9877 21.3921 34.1557 21.5601 34.2117 21.7841V23.4081H34.2677C34.8277 21.8401 35.9477 21.1121 37.4037 21.1121C38.9157 21.1121 39.8117 21.8401 40.4837 23.4081C41.0437 21.8401 42.3877 21.1121 43.7877 21.1121C44.7957 21.1121 45.8597 21.5041 46.5317 22.4561C47.3157 23.4641 47.1477 24.9761 47.1477 26.3201V34.0481C47.1477 34.2721 46.9237 34.4961 46.6997 34.4961H44.2917C44.0677 34.4961 43.8437 34.2721 43.8437 34.0481V27.5521C43.8437 27.0481 43.8997 25.7601 43.7877 25.2561C43.6197 24.4161 43.0597 24.1921 42.3877 24.1921C41.8277 24.1921 41.2117 24.5841 40.9877 25.2001C40.8197 25.8161 40.8197 26.8241 40.8197 27.5521V34.0481C40.8197 34.2721 40.5957 34.4961 40.3717 34.4961H37.9637C37.7397 34.4961 37.5157 34.2721 37.5157 34.0481V27.5521C37.5157 26.2081 37.7397 24.1921 36.0597 24.1921C34.3237 24.1921 34.4357 26.1521 34.4357 27.5521V34.0481C34.4357 34.2721 34.2117 34.4961 33.9317 34.4961Z" fill="black"/>
<path fill-rule="evenodd" clip-rule="evenodd" d="M78.0591 21.1121C81.5871 21.1121 83.5471 24.1361 83.5471 28.0001C83.5471 31.7521 81.4191 34.7201 78.0591 34.7201C74.5871 34.7201 72.6831 31.6961 72.6831 27.8881C72.7391 24.0801 74.6431 21.1121 78.0591 21.1121ZM78.1151 23.6321C76.3791 23.6321 76.2671 26.0401 76.2671 27.5521C76.2671 29.0641 76.2671 32.2561 78.1151 32.2561C79.9631 32.2561 80.0751 29.6801 80.0751 28.1121C80.0751 27.1041 80.0191 25.8161 79.7391 24.8641C79.4031 23.9681 78.8431 23.6321 78.1151 23.6321Z" fill="black"/>
<path fill-rule="evenodd" clip-rule="evenodd" d="M88.1389 34.4961H85.7869C85.5629 34.4961 85.3389 34.2721 85.3389 34.0481V21.7841C85.3389 21.5601 85.5629 21.3921 85.7869 21.3921H88.0269C88.2509 21.3921 88.4189 21.5601 88.4749 21.7281V23.5761H88.5309C89.2029 21.8961 90.1549 21.1121 91.7789 21.1121C92.8429 21.1121 93.9069 21.5041 94.5789 22.5681C95.1389 23.5201 95.1389 25.2001 95.1389 26.3761V34.1041C95.1389 34.3281 94.9149 34.4961 94.6909 34.4961H92.2829C92.0589 34.4961 91.8909 34.3281 91.8349 34.1041V27.4401C91.8349 26.0961 92.0029 24.1361 90.3229 24.1361C89.7629 24.1361 89.2029 24.5281 88.9229 25.0881C88.5869 25.8161 88.5309 26.6001 88.5309 27.3841V33.9921C88.5869 34.2721 88.4189 34.4961 88.1389 34.4961Z" fill="black"/>
<path fill-rule="evenodd" clip-rule="evenodd" d="M56.3315 28.6152C56.3315 29.5672 56.3315 30.2952 55.8835 31.1352C55.4915 31.8072 54.8755 32.1992 54.2035 32.1992C53.3075 32.1992 52.7475 31.5272 52.7475 30.4632C52.7475 28.4472 54.5955 28.0552 56.2755 28.0552V28.6152H56.3315ZM58.7395 34.4392C58.5715 34.6072 58.3475 34.6072 58.1795 34.4952C57.3955 33.8232 57.2275 33.5432 56.8355 32.9272C55.5475 34.2712 54.5955 34.6632 52.9155 34.6632C50.8995 34.6632 49.3315 33.4312 49.3315 30.9672C49.3315 29.0072 50.3955 27.7192 51.8515 27.0472C53.1395 26.4872 54.9315 26.3752 56.3315 26.2072V25.8712C56.3315 25.3112 56.3875 24.6392 56.0515 24.1352C55.7715 23.6872 55.2115 23.5192 54.7075 23.5192C53.8115 23.5192 52.9715 23.9672 52.8035 24.9752C52.7475 25.1992 52.5795 25.4232 52.4115 25.4232L50.1155 25.1992C49.9475 25.1432 49.7235 24.9752 49.7795 24.6952C50.3395 21.8952 52.8595 21.0552 55.0995 21.0552C56.2755 21.0552 57.7875 21.3912 58.6835 22.2312C59.8595 23.2952 59.7475 24.7512 59.7475 26.3192V30.0152C59.7475 31.1352 60.1955 31.6392 60.6435 32.2552C60.8115 32.4792 60.8115 32.7032 60.6435 32.8712C60.0835 33.2632 59.2435 34.0472 58.7395 34.4392Z" fill="black"/>
<path fill-rule="evenodd" clip-rule="evenodd" d="M25.0273 28.6152C25.0273 29.5672 25.0273 30.2952 24.5793 31.1352C24.1873 31.8072 23.5713 32.1992 22.8993 32.1992C22.0033 32.1992 21.4433 31.5272 21.4433 30.4632C21.4433 28.4472 23.2913 28.0552 24.9713 28.0552V28.6152H25.0273ZM27.4353 34.4392C27.2673 34.6072 27.0433 34.6072 26.8753 34.4952C26.0913 33.8232 25.9233 33.5432 25.5313 32.9272C24.2433 34.2712 23.2913 34.6632 21.6113 34.6632C19.5953 34.6632 18.0273 33.4312 18.0273 30.9672C18.0273 29.0072 19.0913 27.7192 20.5473 27.0472C21.8353 26.4872 23.6273 26.3752 25.0273 26.2072V25.8712C25.0273 25.3112 25.0833 24.6392 24.7473 24.1352C24.4673 23.6872 23.9073 23.5192 23.4033 23.5192C22.5073 23.5192 21.6673 23.9672 21.4993 24.9752C21.4433 25.1992 21.2753 25.4232 21.1073 25.4232L18.8113 25.1992C18.6433 25.1432 18.4193 24.9752 18.4753 24.6952C18.9793 21.8952 21.5553 21.0552 23.7953 21.0552C24.9713 21.0552 26.4833 21.3912 27.3793 22.2312C28.5553 23.2952 28.4433 24.7512 28.4433 26.3192V30.0152C28.4433 31.1352 28.8913 31.6392 29.3393 32.2552C29.5073 32.4792 29.5073 32.7032 29.3393 32.8712C28.7793 33.2632 27.9393 34.0472 27.4353 34.4392Z" fill="black"/>
</svg>
