<svg width="239" height="60" viewBox="0 0 239 60" fill="none" xmlns="http://www.w3.org/2000/svg">
<g clip-path="url(#clip0_99_9784)">
<path d="M77.7887 13.6953V25.4183C78.9627 23.2283 82.4707 22.0263 84.7037 22.0263C90.8867 22.0263 95.4607 25.8043 95.4607 33.1043C95.4607 40.0603 90.7697 44.1823 84.5437 44.1823C81.9677 44.1823 79.3427 43.3473 77.7117 40.8133L77.3627 43.7563H72.3867V13.6953H77.7887ZM78.0497 33.1033C78.0497 36.9243 80.8837 39.3293 84.1907 39.3293C87.5397 39.3293 90.2017 36.7963 90.2017 33.1033C90.2017 29.2813 87.5397 26.9203 84.1907 26.9203C80.8837 26.9203 78.0497 29.4113 78.0497 33.1033Z" fill="black"/>
<path d="M103.77 35.0646C104.114 37.6476 106.389 39.5366 110.082 39.5366C112.014 39.5366 114.548 38.7886 115.75 37.5436L119.1 40.8406C116.868 43.1586 113.217 44.2716 109.996 44.2716C102.696 44.2716 98.3594 39.7596 98.3594 32.9756C98.3594 26.5356 102.739 21.9336 109.609 21.9336C116.695 21.9336 121.117 26.3766 120.3 35.0656L103.77 35.0646ZM115.277 30.6026C114.933 28.0196 112.787 26.4806 109.781 26.4806C106.947 26.4806 104.629 28.0196 103.855 30.6026H115.277Z" fill="black"/>
<path d="M141.127 22.6177H146.131V43.7547H141.213L140.955 40.6397C139.752 43.1307 136.445 44.3217 134.084 44.3647C127.814 44.4077 123.178 40.5367 123.178 33.1087C123.178 25.8087 128.03 21.9837 134.213 22.0277C137.047 22.0277 139.752 23.3967 140.955 25.5007L141.127 22.6177ZM128.354 33.1017C128.354 37.1377 131.1 39.5417 134.624 39.5417C142.845 39.5417 142.845 26.7037 134.624 26.7037C131.1 26.7047 128.354 29.0657 128.354 33.1017Z" fill="black"/>
<path d="M164.684 43.756V32.373C164.684 29.582 163.186 27.049 160.309 27.049C157.475 27.049 155.76 29.583 155.76 32.373V43.756H150.594V22.384H155.424L155.811 25.017C156.928 22.87 159.375 22.125 161.393 22.125C163.926 22.125 166.459 23.169 167.663 26.089C169.552 23.083 171.993 22.232 174.741 22.232C180.753 22.232 183.708 25.932 183.708 32.287V43.755H178.542V32.288C178.542 29.496 177.331 27.135 174.497 27.135C171.663 27.135 169.852 29.583 169.852 32.373V43.756H164.684Z" fill="black"/>
<path d="M193.511 35.0646C193.855 37.6476 196.13 39.5366 199.823 39.5366C201.755 39.5366 204.288 38.7886 205.491 37.5436L208.841 40.8406C206.609 43.1586 202.958 44.2716 199.737 44.2716C192.436 44.2716 188.1 39.7596 188.1 32.9756C188.1 26.5356 192.481 21.9336 199.35 21.9336C206.436 21.9336 210.858 26.3766 210.041 35.0656L193.511 35.0646ZM205.019 30.6026C204.675 28.0196 202.529 26.4806 199.523 26.4806C196.689 26.4806 194.371 28.0196 193.597 30.6026H205.019Z" fill="black"/>
<path d="M218.93 22.6209L219.317 25.0289C220.948 22.4099 223.137 22.0039 225.286 22.0039C227.475 22.0039 229.579 22.8529 230.739 24.0119L228.376 28.5579C227.304 27.6569 226.36 27.1819 224.642 27.1819C221.894 27.1819 219.406 28.6399 219.406 32.5469V43.7579H214.006V22.6209H218.93Z" fill="black"/>
<path d="M238.766 40.9354C238.766 45.1634 232.584 45.1634 232.584 40.9354C232.584 36.9434 238.766 36.9434 238.766 40.9354Z" fill="black"/>
<path d="M4.39083 51.4387C2.77883 51.4387 1.24883 50.4887 0.596832 48.9157C-0.265168 46.8357 0.733831 44.4547 2.82783 43.5987L50.7648 23.9907C52.8588 23.1357 55.2578 24.1267 56.1198 26.2077C56.9818 28.2887 55.9838 30.6697 53.8888 31.5257L5.95183 51.1307C5.44083 51.3387 4.91183 51.4387 4.39083 51.4387Z" fill="black"/>
<path d="M4.39083 35.9063C2.77883 35.9063 1.24883 34.9573 0.596832 33.3833C-0.265168 31.3033 0.733831 28.9213 2.82783 28.0653L50.7648 8.46033C52.8588 7.60333 55.2578 8.59633 56.1198 10.6763C56.9818 12.7563 55.9838 15.1373 53.8888 15.9943L5.95183 35.5983C5.44083 35.8083 4.91183 35.9063 4.39083 35.9063Z" fill="black"/>
<path d="M4.39121 19.8658C2.77221 19.8658 1.23821 18.9078 0.590208 17.3258C-0.262792 15.2418 0.746208 12.8658 2.84421 12.0178L32.2512 0.140772C34.3502 -0.706228 36.7422 0.295772 37.5962 2.38077C38.4502 4.46377 37.4402 6.84077 35.3422 7.68877L5.93521 19.5648C5.42921 19.7688 4.90621 19.8658 4.39121 19.8658Z" fill="black"/>
<path d="M22.8487 59.8394C21.2277 59.8394 19.6947 58.8804 19.0477 57.2984C18.1937 55.2154 19.2037 52.8384 21.3017 51.9894L50.7077 40.1134C52.8067 39.2664 55.1997 40.2684 56.0527 42.3534C56.9067 44.4364 55.8967 46.8134 53.7987 47.6614L24.3917 59.5374C23.8857 59.7414 23.3627 59.8394 22.8487 59.8394Z" fill="black"/>
</g>
<defs>
<clipPath id="clip0_99_9784">
<rect width="238.766" height="60" fill="white"/>
</clipPath>
</defs>
</svg>
