<svg width="20" height="20" viewBox="0 0 20 20" fill="#D9D9D9" xmlns="http://www.w3.org/2000/svg">
<g id="Group 1303">
<g id="credit_card">
<mask id="mask0_1292_839" style="mask-type:alpha" maskUnits="userSpaceOnUse" x="0" y="0" width="20" height="20">
<rect id="Bounding box" width="20" height="20" fill="#D9D9D9"/>
</mask>
<g mask="url(#mask0_1292_839)">
<path id="credit_card_2" d="M18.3327 5.0026V15.0026C18.3327 15.4609 18.1695 15.8533 17.8431 16.1797C17.5167 16.5061 17.1243 16.6693 16.666 16.6693H3.33268C2.87435 16.6693 2.48199 16.5061 2.1556 16.1797C1.82921 15.8533 1.66602 15.4609 1.66602 15.0026V5.0026C1.66602 4.54427 1.82921 4.15191 2.1556 3.82552C2.48199 3.49913 2.87435 3.33594 3.33268 3.33594H16.666C17.1243 3.33594 17.5167 3.49913 17.8431 3.82552C18.1695 4.15191 18.3327 4.54427 18.3327 5.0026ZM3.33268 6.66927H16.666V5.0026H3.33268V6.66927ZM3.33268 10.0026V15.0026H16.666V10.0026H3.33268Z" fill="#DADEE2"/>
</g>
</g>
</g>
</svg>
