<svg width="18" height="14" viewBox="0 0 18 14" fill="none" xmlns="http://www.w3.org/2000/svg">
<path d="M17.3327 2.0026V12.0026C17.3327 12.4609 17.1695 12.8533 16.8431 13.1797C16.5167 13.5061 16.1243 13.6693 15.666 13.6693H2.33268C1.87435 13.6693 1.48199 13.5061 1.1556 13.1797C0.82921 12.8533 0.666016 12.4609 0.666016 12.0026V2.0026C0.666016 1.54427 0.82921 1.15191 1.1556 0.825521C1.48199 0.499132 1.87435 0.335938 2.33268 0.335938H15.666C16.1243 0.335938 16.5167 0.499132 16.8431 0.825521C17.1695 1.15191 17.3327 1.54427 17.3327 2.0026ZM2.33268 3.66927H15.666V2.0026H2.33268V3.66927ZM2.33268 7.0026V12.0026H15.666V7.0026H2.33268Z" fill="#3D50E0"/>
</svg>
