<svg width="720" height="534" viewBox="0 0 720 534" fill="none" xmlns="http://www.w3.org/2000/svg">
<path d="M4.89606 12.989C13.3201 10.055 21.1951 8.19199 28.7011 6.70699C36.2161 5.24899 43.3801 4.26798 50.5711 3.47598C51.6871 3.33198 52.8481 2.85499 54.0901 2.35999C55.3321 1.87399 56.6551 1.36998 58.0861 1.35198C63.7651 1.16298 69.5341 0.820985 75.2671 0.910985C80.9821 1.00998 86.6611 1.51399 91.9711 3.09799C103.572 6.51799 114.957 9.08299 126.225 10.784C136.935 12.422 146.88 16.346 156.843 20.18C158.517 20.846 160.227 21.368 161.811 22.295C163.404 23.195 164.925 24.338 166.266 26.021C166.752 26.633 167.418 27.227 168.183 27.803C168.939 28.397 169.821 28.937 170.784 29.396C172.701 30.314 174.978 30.836 177.255 30.728C178.128 30.701 179.298 31.943 180.207 32.726C181.197 33.581 181.953 35.219 182.925 35.399C188.334 36.569 193.05 39.296 197.334 42.581C198.414 43.4 199.503 44.201 200.547 45.056L203.652 47.675C204.696 48.539 205.74 49.385 206.811 50.204C207.873 51.032 208.908 51.887 210.006 52.67C212.175 54.272 213.714 56.891 216.999 56.702C217.854 56.639 219.852 58.385 220.023 59.348C220.248 60.608 220.689 61.643 221.292 62.597C221.868 63.578 222.624 64.469 223.524 65.387C231.3 73.253 238.293 81.992 244.386 91.289C247.149 92.729 249.066 95.015 250.659 97.526C252.18 100.091 253.26 102.944 254.655 105.527C255.195 106.49 255.582 107.525 255.951 108.569C256.32 109.613 256.644 110.675 256.95 111.746L257.841 114.95C258.138 116.012 258.345 117.119 258.624 118.181C259.173 120.341 260.37 122.312 261.279 124.391C262.098 126.497 262.656 128.702 262.008 131.114C261.783 131.888 263.196 133.193 263.547 134.372C264.411 136.982 265.491 139.601 266.382 142.238C267.147 144.911 267.741 147.602 267.795 150.23C267.813 152.939 267.651 155.657 268.101 158.258C269.289 166.709 270 175.259 269.712 183.818L269.658 187.031C269.667 188.102 269.514 189.164 269.451 190.235L268.929 196.643C268.65 198.767 268.317 200.891 268.011 203.015C267.849 204.077 267.714 205.139 267.525 206.192L266.85 209.342C266.382 211.43 265.977 213.554 265.464 215.624C264.897 217.667 264.411 219.728 263.781 221.762C263.169 223.796 262.584 225.839 261.873 227.855L260.856 230.888L259.731 233.885C258.246 237.89 256.518 241.814 254.691 245.693C252.774 249.536 250.794 253.352 248.526 257.006C247.752 258.284 246.924 259.49 246.195 260.786C245.466 262.091 244.989 263.585 244.773 265.403C244.611 266.825 243.765 268.715 242.541 270.29C241.299 271.865 239.823 273.233 238.473 273.683C236.295 274.394 234.873 275.609 233.559 276.914C232.245 278.201 231.192 279.722 229.833 280.964C228.582 282.107 227.394 283.313 226.152 284.465L222.444 287.921C219.96 290.144 217.449 292.367 214.74 294.356C211.563 296.705 208.899 300.755 204.165 300.08C203.724 300.026 202.68 300.728 202.482 301.214C201.501 303.734 199.647 305.021 197.604 305.894C196.56 306.308 195.462 306.623 194.382 306.947C193.293 307.262 192.186 307.55 191.151 307.973C189.639 308.585 188.136 309.188 186.687 310.043C185.202 310.826 183.807 311.906 182.349 313.211C180.963 314.543 178.803 315.686 176.544 316.406C175.401 316.73 174.24 316.955 173.142 317.054C172.035 317.126 170.991 317.036 170.109 316.82C168.939 316.541 167.796 316.343 166.707 316.262C165.618 316.181 164.574 316.235 163.539 316.244C162.504 316.271 161.487 316.388 160.47 316.46C159.453 316.505 158.436 316.55 157.41 316.559C151.371 316.496 145.35 315.497 139.572 313.643C133.803 311.771 128.259 309.008 123.39 305.21C118.539 301.394 114.453 296.489 111.582 290.954C110.214 288.164 109.026 285.275 108.279 282.269L107.973 281.153L107.739 280.019C107.586 279.263 107.424 278.507 107.289 277.751C107.091 276.23 106.821 274.709 106.758 273.188C106.488 270.299 106.416 267.437 106.344 264.539C106.38 261.659 106.434 258.743 106.83 255.863C106.974 254.405 107.271 252.992 107.532 251.552C107.856 250.13 108.207 248.708 108.666 247.322C109.566 244.541 110.799 241.823 112.356 239.375C113.094 238.205 113.58 236.837 114.273 235.613C115.002 234.416 115.893 233.345 117.513 232.931C118.17 232.751 119.088 230.789 119.124 229.781C119.205 226.082 121.707 224.003 123.939 221.366C129.033 215.363 134.694 209.999 140.148 204.671C142.866 201.998 145.566 199.352 148.14 196.598C150.705 193.835 153.216 191.036 155.574 188.129C159.219 183.557 163.323 179.516 167.463 175.547C171.693 171.659 175.905 167.78 180.135 163.883C181.539 162.569 183.222 161.57 184.941 160.607C185.805 160.13 186.669 159.644 187.533 159.167C188.406 158.69 189.252 158.186 190.053 157.628C193.176 155.477 196.002 152.876 198.909 150.419C200.646 148.952 202.824 148.061 203.481 145.262C203.832 143.759 206.253 141.509 207.81 141.374C210.402 141.104 212.481 140.06 214.398 138.737C215.352 138.08 216.261 137.351 217.179 136.622C218.106 135.92 219.033 135.209 219.987 134.561C230.814 127.019 241.947 119.819 253.638 113.573C255.069 112.808 256.428 111.692 257.913 110.9C259.38 110.09 261.054 109.73 262.98 110.288C263.511 110.45 264.771 108.83 265.725 108.056C266.733 107.237 267.795 105.815 268.803 105.752C269.946 105.662 271.08 105.536 272.196 105.365C273.303 105.185 274.383 104.933 275.445 104.627C277.569 104.024 279.603 103.205 281.601 102.287C285.66 100.586 289.629 98.543 293.733 97.022L301.302 94.556L305.082 93.305L308.916 92.18C311.463 91.397 314.046 90.776 316.62 90.083C319.203 89.453 321.795 88.832 324.396 88.283C334.809 86.114 345.393 84.611 356.022 84.287C357.507 84.251 358.938 84.053 360.351 83.783C361.755 83.531 363.141 83.243 364.527 82.937C367.299 82.289 370.08 81.83 372.987 81.911C378.612 82.235 384.273 82.253 389.853 83.117C391.833 83.378 393.903 83.378 395.901 83.711C396.9 83.882 397.881 84.116 398.808 84.539C399.735 84.98 400.608 85.583 401.4 86.429C402.264 87.356 405.081 87.797 406.368 87.347C408.798 86.438 411.183 86.555 413.496 87.104C414.657 87.365 415.8 87.689 416.952 88.004C418.095 88.337 419.229 88.679 420.39 88.886C423.243 89.372 425.916 90.605 428.679 91.478C430.056 91.937 431.433 92.387 432.882 92.63C433.602 92.756 434.34 92.837 435.096 92.855C435.852 92.891 436.617 92.891 437.409 92.819C439.137 92.666 441.342 95.177 443.403 96.284C445.212 97.211 447.048 98.102 448.848 99.065C450.666 99.983 452.493 100.901 454.311 101.81C456.048 102.692 458.262 102.665 459.99 103.637C466.713 107.192 473.256 111.215 479.394 115.868C485.523 120.494 491.319 125.732 496.485 131.429C497.781 132.896 499.14 134.3 500.355 135.83L504.036 140.402C505.233 141.95 506.34 143.561 507.492 145.145C508.662 146.72 509.715 148.367 510.768 150.023C512.946 153.281 514.845 156.71 516.78 160.103L519.48 165.314C520.398 167.042 521.154 168.842 522 170.606C525.231 177.716 528.129 184.988 530.343 192.458C532.584 199.919 534.303 207.515 535.446 215.165C535.626 216.605 535.959 218.054 536.31 219.512C536.661 220.97 537.021 222.437 537.201 223.913C537.597 226.856 537.534 229.817 535.797 232.616C536.472 233.885 536.904 235.145 537.156 236.396C537.372 237.638 537.381 238.871 537.237 240.077C537.093 241.283 536.805 242.48 536.391 243.65C535.959 244.829 535.392 245.981 534.762 247.133C534.393 247.79 535.5 249.437 535.824 250.67C536.733 254.486 540.549 258.392 536.094 262.442C535.932 262.586 536.085 263.135 536.013 263.477C535.635 265.223 536.409 266.771 536.931 268.454C537.444 270.128 537.759 271.937 536.229 274.043C535.284 275.357 534.843 277.148 534.573 279.083C534.294 281.018 534.096 283.079 533.772 284.933C533.448 286.841 533.025 288.749 532.683 290.657C532.341 292.565 532.071 294.491 531.846 296.399C531.621 298.379 530.865 300.341 530.361 302.321C529.857 304.301 529.704 306.317 530.82 308.513C531.18 309.233 528.309 311.537 528.03 313.238C527.688 315.434 527.022 317.567 526.32 319.691C525.636 321.815 524.808 323.903 524.07 326.009C523.701 327.062 523.359 328.124 523.053 329.195C522.72 330.257 522.441 331.328 522.207 332.426C521.757 334.613 521.55 336.863 521.658 339.23C521.775 341.408 520.605 344.369 519.102 346.07C516.465 349.175 514.737 352.406 513.432 355.871C512.154 359.345 511.11 362.963 509.994 366.761C506.898 376.634 502.146 386.921 493.623 393.653C491.805 395.075 490.77 395.552 490.86 398.144C490.914 399.845 489.348 401.834 488.277 403.544C482.184 413.048 475.434 422.192 467.928 430.76C460.413 439.31 452.169 447.329 443.061 454.358C440.577 456.266 437.643 457.391 434.862 458.669C433.476 459.317 432.009 459.839 430.659 460.577C429.3 461.297 428.004 462.143 426.816 463.241C424.818 465.05 421.38 465.185 420.642 468.47C420.534 468.92 419.634 469.613 419.094 469.676C414.963 470.135 411.633 471.998 408.204 473.933C404.793 475.859 401.256 477.83 397.269 478.298C395.577 478.523 393.858 478.316 392.175 478.406C390.429 478.442 388.368 478.118 387.018 478.748C381.366 481.529 374.931 482.132 368.577 481.583C365.409 481.277 362.259 480.764 359.154 480.035C356.04 479.369 352.989 478.514 349.902 477.713C348.858 477.407 347.814 477.02 346.797 476.534C345.789 476.039 344.772 475.544 343.755 475.094C342.747 474.617 341.721 474.221 340.623 474.014C339.543 473.753 338.409 473.672 337.14 473.852C336.366 473.987 334.683 472.835 334.17 472.025C331.956 468.326 329.058 465.752 326.07 462.998L323.865 460.892C323.136 460.181 322.47 459.407 321.786 458.66C320.391 457.175 319.302 455.456 318.366 453.71C317.907 452.801 317.385 451.901 316.773 451.037L315.864 449.732C315.576 449.291 315.324 448.832 315.072 448.373C314.577 447.446 314.163 446.501 313.965 445.502C313.812 444.485 313.866 443.432 314.253 442.334C314.352 442.055 314.181 441.587 313.911 441.074C313.65 440.561 313.344 440.003 313.083 439.58C312.642 438.842 312.048 438.149 311.508 437.438C310.977 436.727 310.563 435.98 310.374 435.179C309.825 432.947 309.87 430.508 309.78 428.213C309.78 427.061 309.762 425.936 309.636 424.865C309.501 423.794 309.393 422.768 309.051 421.805C308.853 421.211 308.673 420.617 308.529 420.014C308.403 419.42 308.313 418.826 308.232 418.223C308.097 417.035 307.962 415.847 308.007 414.668C308.025 413.489 308.079 412.319 308.142 411.158C308.259 409.997 308.376 408.836 308.457 407.666C308.7 404.984 310.455 402.554 311.31 399.998C311.67 398.783 312.012 397.541 312.291 396.281L312.705 394.391C312.867 393.779 313.029 393.176 313.209 392.573C313.722 390.854 314.082 389.054 314.649 387.335C315.189 385.607 315.774 383.915 316.737 382.466C317.718 380.963 317.655 379.244 317.916 377.588C318.177 375.932 318.555 374.24 320.4 372.953C321.804 371.972 322.164 370.397 322.407 368.678C322.659 366.968 322.722 365.078 323.37 363.512C324.054 361.982 325.251 360.605 326.376 359.336C327.258 358.373 328.779 357.878 329.328 356.852C329.94 355.664 330.741 354.629 331.452 353.495C332.163 352.37 332.721 351.11 333.009 349.562C333.198 348.491 334.161 347.483 335.304 346.493C336.447 345.494 337.815 344.558 338.76 343.496C339.687 342.434 340.605 341.363 341.487 340.247C342.369 339.14 343.224 338.006 344.16 336.944C345.087 335.882 346.158 334.856 347.166 333.839C348.183 332.822 349.11 331.778 349.704 330.59C352.386 325.388 356.274 321.113 360.513 317.27C364.779 313.445 369.405 310.052 373.716 306.362C374.832 305.426 375.894 304.22 377.127 303.32C378.378 302.447 379.809 301.889 381.627 302.231C382.266 302.348 383.625 301.403 384.138 300.674C387.36 295.976 391.851 292.727 396.567 289.883C401.292 287.021 406.269 284.618 410.733 281.459C413.91 279.191 417.033 276.869 420.282 274.691C421.893 273.584 423.567 272.576 425.268 271.586C426.978 270.614 428.832 269.777 430.686 269.003C437.913 265.853 445.716 263.693 452.376 259.85C457.956 256.97 463.563 253.919 469.719 253.226C471.213 253.019 472.599 252.443 473.958 251.75C474.633 251.399 475.308 251.021 475.974 250.634L476.982 250.067L478.008 249.581C480.744 248.33 483.624 247.547 486.927 249.248C488.43 248.969 489.924 248.627 491.436 248.393L495.972 247.745C499.005 247.34 502.029 246.899 505.071 246.656C507.636 246.539 510.201 246.089 512.784 245.945C514.071 245.873 515.367 245.882 516.645 246.053C517.284 246.143 517.932 246.251 518.571 246.458C519.21 246.665 519.849 246.926 520.488 247.25C522.333 248.186 525.816 248.042 527.787 247.124C529.371 246.395 530.964 245.846 532.548 245.567C534.132 245.324 535.716 245.261 537.3 245.333C540.459 245.504 543.618 246.107 546.786 247.043C548.28 247.52 550.305 246.35 552.078 246.467C554.76 246.656 557.469 246.773 560.16 247.061C562.833 247.439 565.497 247.88 568.116 248.483C570.069 248.951 572.031 249.266 573.984 249.68C575.928 250.112 577.872 250.499 579.834 250.85C581.787 251.201 583.749 251.507 585.72 251.795C586.71 251.921 587.682 252.119 588.654 252.317L591.588 252.875L597.474 253.973L600.426 254.531L603.333 255.269C605.268 255.773 607.203 256.304 609.129 256.871L612.009 257.744C612.963 258.05 613.935 258.329 614.853 258.734C617.598 259.841 621.459 259.076 623.691 260.597C627.12 262.829 630.522 265.07 634.086 266.969C635.868 267.932 637.668 268.832 639.486 269.714L644.859 272.495C652.005 276.212 659.088 280.181 665.001 285.563C673.695 293.483 682.479 300.935 690.921 308.99C699.363 316.991 707.274 325.604 713.916 335.144C714.771 336.386 715.203 337.988 715.581 339.365C715.959 340.742 716.238 341.93 716.913 342.317C717.957 342.938 718.83 343.73 719.604 344.603C720.387 345.467 721.044 346.43 721.647 347.402C722.871 349.328 723.996 351.2 725.625 352.379C727.056 353.459 728.244 354.71 729.279 356.042C729.792 356.708 730.278 357.401 730.728 358.103C731.16 358.814 731.556 359.552 731.943 360.29C732.717 361.766 733.419 363.269 734.175 364.745C734.904 366.23 735.624 367.715 736.515 369.119C737.154 370.145 737.694 371.252 738.162 372.386C738.621 373.529 739.053 374.699 739.548 375.815C740.043 376.931 740.619 378.011 741.357 378.983C742.068 379.964 742.941 380.855 744.093 381.584C744.759 382.007 745.326 383.591 745.317 384.545C745.326 386.462 745.623 388.235 746.226 389.9C746.802 391.574 747.675 393.131 748.467 394.733C749.286 396.317 750.15 397.901 750.87 399.53C751.608 401.15 752.076 402.869 752.256 404.66C754.11 407.585 755.433 410.852 756.549 414.182C756.819 415.019 757.116 415.847 757.332 416.693C757.548 417.539 757.755 418.394 757.944 419.249C758.331 420.959 758.682 422.687 759.006 424.415C760.086 431.354 760.617 438.356 761.436 445.196C761.679 447.203 762.651 449.138 763.119 451.118C763.371 452.126 763.893 453.314 763.668 454.169C762.021 460.469 761.706 466.643 761.679 472.853C761.625 475.931 761.634 479.027 761.544 482.087C761.409 485.12 761.247 488.189 760.743 491.132C760.419 493.085 759.924 495.011 759.42 496.928C758.898 498.827 758.376 500.717 758.025 502.652C757.305 506.531 757.863 510.626 755.19 514.037C754.362 515.099 754.524 517.367 754.668 519.023C755.442 527.978 750.015 534.089 742.014 533.702C739.125 533.549 739.089 531.695 738.162 529.679C736.362 525.773 735.345 521.966 735.948 517.448C736.434 513.947 737.685 510.167 735.201 506.81C734.787 506.243 735.03 504.65 735.453 503.84C736.965 500.951 737.352 497.792 737.658 494.642C737.919 491.51 738.117 488.405 739.143 485.651C739.926 483.527 740.322 481.448 740.574 479.396C740.817 477.344 740.952 475.301 741.321 473.24C741.609 471.503 741.384 469.73 741.438 467.957C741.465 467.075 741.555 466.184 741.798 465.302C742.023 464.42 742.401 463.547 743.031 462.674C743.859 461.486 741.726 458.057 741.492 455.654C741.393 454.232 741.285 452.801 741.186 451.37C741.096 449.939 740.925 448.517 740.826 447.095C740.709 445.673 740.637 444.242 740.547 442.82C740.43 441.398 740.331 439.976 740.268 438.554C739.836 429.887 737.487 421.517 734.544 413.516C731.52 405.452 728.046 397.676 725.274 389.558C723.33 387.047 721.602 384.455 720.144 381.737C719.433 380.369 718.659 379.028 717.975 377.642C717.264 376.265 716.652 374.843 715.941 373.475C714.537 370.721 713.241 367.895 711.657 365.258C710.874 363.935 710.109 362.603 709.227 361.343C708.336 360.092 707.409 358.877 706.419 357.716C701.55 352.163 697.212 346.367 692.55 340.823C687.906 335.279 683.136 329.834 677.673 325.127C675.432 323.201 673.74 321.554 672.444 319.07C671.562 317.486 670.617 315.785 669.267 314.588C664.092 309.953 658.377 305.966 652.869 301.745C649.89 299.477 645.453 298.757 644.418 294.167C644.265 293.537 642.807 292.673 641.952 292.655C638.46 292.511 635.544 291.242 632.745 289.667C629.955 288.074 627.183 286.364 624.231 285.158C623.106 284.699 622.026 284.195 621 283.511C619.965 282.854 619.011 281.936 618.012 280.919C615.879 278.633 611.586 277.031 608.364 277.022C607.158 276.995 606.06 276.887 605.007 276.698C603.954 276.509 602.946 276.239 601.875 276.023C599.661 275.573 597.528 274.844 595.404 274.016C593.271 273.233 591.111 272.513 588.951 271.784C586.782 271.082 584.595 270.47 582.363 270.146C580.104 269.948 577.8 270.02 575.469 270.569C574.533 269.453 573.453 268.616 572.301 267.986C571.14 267.347 569.907 266.906 568.62 266.717C566.055 266.285 563.4 266.393 561.042 266.456C551.943 266.798 543.087 266.393 534.168 266.06C531.945 265.889 529.713 265.961 527.481 265.934L520.785 265.916C520.227 265.925 519.669 265.907 519.111 265.925L517.437 266.033L514.098 266.276C511.875 266.447 509.652 266.645 507.438 266.897C503.19 267.536 498.699 266.663 494.28 266.933C491.985 267.176 489.699 267.608 487.422 268.049C485.145 268.526 482.868 268.976 480.627 269.579C478.26 270.272 475.164 269.849 473.967 272.846C473.877 273.071 473.49 273.305 473.229 273.332C471.906 273.449 470.529 273.422 469.179 273.503C467.847 273.638 466.542 273.854 465.345 274.34C463.185 275.213 461.709 277.535 459.657 278.687C459.045 279.038 458.406 279.326 457.776 279.659C457.146 279.992 456.507 280.307 455.859 280.613C454.563 281.216 453.231 281.756 451.917 282.296C449.388 283.367 446.85 284.852 443.934 283.736C443.142 287.282 439.695 287.273 437.301 288.623C435.051 289.838 432.594 290.972 430.245 292.169L426.294 294.257L422.37 296.399C419.778 297.857 417.051 299.144 414.666 300.899C413.019 302.096 411.516 303.473 409.986 304.805C408.483 306.173 406.971 307.514 405.378 308.738C402.012 311.321 398.466 313.715 394.884 315.956C390.384 318.764 385.659 321.239 381.258 324.236C379.44 325.478 378.477 327.242 377.541 329.393C376.938 330.833 376.47 332.687 375.516 334.127C374.58 335.594 373.122 336.602 370.467 336.449C369.423 336.395 367.749 338.339 367.119 339.689C364.653 345.053 361.098 349.256 357.435 353.423C353.79 357.581 350.046 361.748 347.562 366.617C346.149 367.481 344.979 368.516 343.989 369.668C343.044 370.838 342.279 372.125 341.613 373.466C340.983 374.825 340.488 376.256 339.993 377.696C339.525 379.145 339.147 380.639 338.661 382.106C337.365 386.462 336.042 390.854 334.701 395.192C334.35 396.272 334.053 397.361 333.693 398.432L333.144 400.034L332.667 401.501C332.505 401.987 332.325 402.473 332.145 402.95C331.983 403.436 331.821 403.922 331.65 404.408C331.308 405.38 330.921 406.343 330.588 407.315C329.049 411.419 328.662 415.775 328.878 419.969C329.094 424.181 329.904 428.24 330.768 432.2C331.047 433.307 331.578 434.378 331.965 435.422C332.136 435.953 332.235 436.511 332.181 437.123C332.127 437.726 331.992 438.347 331.596 439.085C331.416 439.418 331.569 439.967 331.848 440.516C332.118 441.074 332.64 441.551 333.036 441.866C334.431 442.973 335.781 443.945 336.897 445.052C337.509 445.556 338.076 446.078 338.598 446.636C339.111 447.203 339.696 447.698 340.191 448.283C342.288 450.506 344.331 452.963 346.77 455.519C347.391 456.212 348.201 456.725 349.02 457.211C349.866 457.67 350.811 458.003 351.765 458.309C353.727 458.831 355.824 459.083 357.903 459.155C360.999 459.308 364.041 459.866 367.191 460.361C370.359 460.847 373.545 461.234 376.821 461.063C377.568 461.882 378.279 462.206 378.927 462.287C379.575 462.359 380.16 462.179 380.682 461.792C381.726 461.045 382.473 459.785 383.076 458.939C384.678 456.752 386.289 456.122 388.485 455.537C391.266 454.808 394.299 454.529 396.324 451.505C396.837 450.74 397.872 450.11 399.033 449.741C400.185 449.327 401.472 449.201 402.444 449.372C405.09 449.885 405.576 448.841 406.926 447.032C408.483 444.89 412.164 446.393 414.801 444.647C416.169 443.666 417.456 442.307 418.941 441.362C419.679 440.885 420.48 440.525 421.371 440.336C422.235 440.111 423.198 440.084 424.305 440.345C424.701 440.435 425.529 439.787 425.763 439.301C426.141 438.482 426.6 437.771 427.113 437.159C427.635 436.547 428.211 436.016 428.796 435.485C429.984 434.459 431.361 433.667 432.792 432.92L434.952 431.804C435.645 431.39 436.329 430.967 436.986 430.508C438.3 429.59 439.506 428.537 440.415 427.187C448.686 422.03 455.391 414.677 461.223 406.739C467.073 398.765 472.149 390.224 477.684 381.908C478.854 380.207 480.042 378.497 481.311 376.832L483.21 374.321C483.831 373.475 484.425 372.611 485.019 371.738C486.189 370.001 487.323 368.237 488.286 366.392C489.204 364.529 489.978 362.594 490.518 360.578C491.103 358.472 491.67 356.348 492.318 354.278C492.957 352.199 493.713 350.174 494.406 348.122C495.126 346.079 495.891 344.054 496.701 342.047C497.466 340.04 498.231 338.06 499.041 336.071C502.164 328.124 505.242 320.105 507.222 311.807C507.672 310.061 507.717 308.063 508.212 306.236C508.455 305.318 508.806 304.445 509.346 303.644C509.859 302.843 510.57 302.114 511.569 301.511C512.118 301.178 512.451 299.531 512.208 298.739C511.308 295.76 511.254 293.06 511.911 290.477C512.46 287.876 513.72 285.401 515.133 282.863C515.817 281.63 516.114 279.173 515.421 278.273C513.45 275.735 514.62 273.278 514.971 270.893C515.142 269.453 515.79 267.824 516.294 266.312C516.546 265.556 516.753 264.836 516.834 264.188C516.897 263.54 516.834 262.964 516.573 262.514C515.43 260.588 515.583 259.166 516.096 257.861C516.591 256.556 517.41 255.359 517.671 253.955C517.833 253.091 517.761 252.173 517.617 251.246C517.455 250.319 517.176 249.392 516.987 248.483C516.807 247.628 515.772 246.575 516.015 246.08C516.735 244.658 516.942 243.236 516.915 241.823C516.888 240.419 516.627 239.024 516.294 237.647C515.925 236.27 515.502 234.911 515.223 233.543C515.079 232.859 514.98 232.175 514.926 231.482C514.854 230.798 514.836 230.096 514.908 229.394C515.025 228.188 514.818 226.928 515.025 225.731C515.304 224.039 515.457 222.563 515.628 221.222C515.781 219.89 515.943 218.693 515.979 217.604C516.078 215.426 516.033 213.626 515.799 211.754C515.502 209.891 514.989 207.965 514.215 205.508C513.792 204.293 513.27 202.952 512.676 201.431C512.37 200.675 512.073 199.856 511.713 199.01C511.335 198.164 510.93 197.273 510.507 196.31C511.137 194.924 511.164 193.646 510.822 192.458C510.453 191.288 509.769 190.19 509.049 189.101C507.663 186.896 505.953 184.862 506.457 181.955C506.655 180.884 506.295 179.588 505.683 178.337C505.071 177.086 504.216 175.898 503.379 175.052C501.435 173.243 499.869 171.281 498.456 169.229C497.718 168.221 497.034 167.186 496.386 166.124C495.747 165.062 495.135 163.982 494.46 162.929C493.146 160.814 491.976 158.6 490.536 156.575C489.834 155.549 489.123 154.532 488.376 153.533C487.62 152.552 486.765 151.643 485.91 150.752C485.19 150.014 485.118 148.907 484.803 147.89C484.488 146.873 483.849 146.009 482.157 145.73C480.879 145.55 480.483 141.338 478.809 139.799C477.639 138.656 476.73 137.198 475.497 136.046C474.282 134.885 472.905 133.877 470.772 133.85C469.044 133.823 467.496 131.213 465.624 130.088C464.355 129.314 463.365 128.198 462.105 127.397C460.872 126.578 459.495 125.939 457.668 125.984C456.651 126.038 455.373 125.561 454.23 124.841C453.654 124.481 453.123 124.049 452.664 123.599C452.187 123.167 451.8 122.708 451.548 122.24C450.486 120.341 449.181 118.829 447.633 117.776C446.103 116.696 444.447 115.895 442.656 115.4C439.128 114.32 435.33 114.113 431.784 113.483C429.624 113.141 428.148 112.916 426.267 111.575C423.684 109.595 419.985 107.156 417.285 107.687C412.506 108.722 408.816 106.778 404.676 106.067C397.566 104.816 390.411 103.349 383.13 103.07C378.981 102.926 374.859 102.512 370.692 102.512C369.648 102.512 368.613 102.521 367.569 102.557C366.525 102.602 365.481 102.71 364.437 102.827C363.393 102.953 362.349 103.097 361.314 103.313C360.27 103.547 359.235 103.817 358.2 104.141C355.977 104.798 353.439 105.617 350.802 105.779C349.479 105.878 348.147 105.878 346.797 105.626C345.447 105.383 344.097 104.915 342.765 104.204C342.171 103.889 340.479 106.157 339.174 106.355L335.331 107.048C334.053 107.273 332.775 107.516 331.497 107.795L327.681 108.587L323.883 109.478C322.614 109.757 321.354 110.081 320.103 110.414L316.332 111.386C313.839 112.106 311.337 112.727 308.817 113.555C306.513 114.266 302.787 111.755 301.608 115.175C300.987 116.966 299.592 116.741 298.242 116.561C296.901 116.381 295.605 116.255 295.344 118.334C295.272 118.937 293.184 119.693 291.987 119.783C291.177 119.846 290.367 119.918 289.566 120.044C288.774 120.188 288 120.359 287.217 120.548C285.669 120.926 284.139 121.385 282.636 121.907C281.133 122.438 279.639 122.978 278.19 123.653C276.75 124.337 275.328 125.066 273.915 125.813C271.089 127.307 268.281 128.837 265.527 130.511C264.141 131.321 262.746 132.113 261.342 132.86C259.938 133.616 258.489 134.3 257.067 135.047C254.304 136.433 252.09 139.484 248.373 138.116C245.952 141.635 242.037 143.165 238.203 144.866C234.432 146.666 230.814 148.745 229.248 153.146C226.701 154.451 224.64 156.602 222.408 158.438C220.149 160.256 217.782 161.876 214.506 162.128C213.444 162.209 212.454 164.108 211.32 164.306C207.441 164.999 209.304 170.759 204.228 171.182C202.77 171.317 201.312 172.298 199.863 173.513C198.441 174.764 197.037 176.276 195.642 177.419C193.059 179.543 190.548 181.757 188.064 184.025C185.328 186.509 182.547 188.921 179.847 191.468C177.147 193.997 174.249 196.346 171.765 199.082C169.254 201.872 167.058 204.923 164.754 207.875C162.459 210.854 160.029 213.716 156.987 216.083C156.339 216.587 155.646 217.883 155.826 218.504C157.392 223.661 152.928 224.408 150.255 225.245C147.996 225.947 146.394 226.865 144.936 228.521C142.965 230.78 141.111 233.057 139.338 235.325C137.583 237.593 135.927 239.852 134.298 242.075C133.335 243.398 132.768 244.991 131.967 246.395C131.589 247.097 131.103 247.754 130.5 248.321C129.915 248.897 129.15 249.383 128.142 249.743C127.539 249.959 127.035 250.679 126.684 251.525C126.36 252.38 126.234 253.379 126.288 254.144C126.675 257.717 126.234 260.795 125.784 263.882C125.334 266.933 124.893 270.011 125.406 272.855C125.865 275.411 126.324 277.85 127.08 280.109C127.188 280.559 127.512 280.91 127.818 281.252C128.151 281.585 128.439 281.936 128.781 282.233C129.105 282.548 129.366 282.881 129.483 283.295C129.6 283.718 129.672 284.15 129.492 284.789C130.41 285.437 131.436 285.959 132.273 286.58C132.723 286.868 133.218 287.129 133.641 287.426L134.28 287.876C134.514 288.011 134.748 288.146 134.973 288.281C136.701 289.46 138.6 290.558 140.589 291.665C142.56 292.808 144.81 293.717 147.132 294.527C149.472 295.319 151.992 295.751 154.503 295.904C157.023 295.958 159.534 295.895 162.009 295.616C162.63 295.571 163.224 295.427 163.836 295.346C164.439 295.265 165.051 295.184 165.708 295.022L167.661 294.626L169.614 294.122C172.215 293.402 174.834 292.574 177.435 291.467C178.092 291.215 178.74 290.945 179.397 290.63L181.359 289.739C182.655 289.082 183.969 288.461 185.256 287.723C186.561 287.039 187.713 285.869 189.045 285.095C190.359 284.249 191.862 283.808 193.896 284.294C194.67 284.492 196.515 283.151 196.677 282.233C197.154 279.767 197.649 278.228 200.718 278.759C201.285 278.849 202.347 277.346 202.788 276.41C203.4 275.087 204.165 274.061 205.137 273.269C206.091 272.45 207.315 271.847 208.692 271.361C209.754 270.992 210.897 270.425 211.914 269.723C212.94 269.021 213.741 268.112 214.236 267.167C214.875 265.907 215.514 264.665 216.144 263.441C216.783 262.244 217.503 261.137 218.25 260.084C219.006 259.031 219.933 258.131 220.959 257.294C221.985 256.457 223.236 255.764 224.712 255.206C225.432 254.909 224.784 252.173 225.558 251.3C226.314 250.436 226.899 249.446 227.493 248.465C228.096 247.484 228.609 246.449 229.185 245.45C230.373 243.479 231.624 241.571 233.865 240.149C235.647 238.934 236.241 236.09 237.447 234.047C238.563 232.31 238.986 230.294 239.553 228.35C239.805 227.36 240.048 226.352 240.408 225.38C240.768 224.408 241.209 223.445 241.776 222.482C244.206 218.657 244.8 213.635 245.907 209.126L247.347 202.448L248.346 195.671C248.823 191.126 249.228 186.554 249.21 181.946C249.219 180.794 249.282 179.651 249.246 178.499L249.084 175.043L248.931 171.587C248.877 170.435 248.697 169.283 248.598 168.14C248.211 163.532 247.41 158.951 246.564 154.388L245.016 147.584L243.126 140.852C243.018 140.456 242.919 140.069 242.82 139.673C242.703 139.286 242.595 138.908 242.487 138.521C242.28 137.756 242.1 136.982 241.965 136.19C241.677 134.624 241.569 132.977 241.569 131.204C241.524 122.141 236.547 112.358 227.583 103.07C226.98 102.377 226.512 101.513 225.981 100.73C219.105 90.524 210.51 81.596 202.023 72.587L200.664 71.057L199.278 69.536C198.369 68.501 197.451 67.457 196.533 66.413C196.065 65.9 195.615 65.36 195.12 64.874C194.625 64.388 194.112 63.911 193.599 63.434C192.564 62.498 191.484 61.598 190.341 60.779C188.865 59.681 187.398 58.61 185.841 57.674C184.266 56.765 182.601 55.964 180.513 55.811C178.776 55.685 177.417 54.452 175.905 53.309C174.42 52.139 172.692 51.194 170.415 51.59C169.587 51.734 168.444 51.365 167.382 50.762C166.851 50.456 166.338 50.087 165.897 49.709C165.438 49.34 165.051 48.944 164.772 48.548C161.136 43.238 154.989 41.906 149.724 39.377C148.194 38.648 146.664 37.937 145.116 37.244C143.559 36.569 141.966 35.993 140.382 35.381C138.789 34.805 137.223 34.148 135.594 33.671L130.734 32.168C129.15 31.664 127.62 30.98 125.982 30.584C124.353 30.179 122.634 30.053 120.69 30.755C118.773 31.484 115.137 29.738 113.004 28.127C111.357 26.921 109.557 26.246 107.748 25.814C105.93 25.382 104.085 25.229 102.285 25.274C94.5541 25.418 94.6711 25.706 87.4351 23.042C86.5711 22.727 85.6081 22.61 84.6721 22.538C80.0281 22.079 75.3301 21.566 70.6411 21.35C65.9611 21.125 61.2901 21.341 56.8261 22.304C49.4011 23.969 42.2191 24.869 35.0011 26.192C33.5701 26.462 32.1031 27.128 30.6091 27.371C29.1241 27.641 27.6301 27.551 26.0551 26.282C25.6051 25.904 23.9941 26.363 23.3911 26.93C22.1131 28.136 20.7361 29.027 19.3231 29.783C18.6121 30.152 17.8831 30.467 17.1361 30.737C16.3981 31.025 15.6511 31.295 14.8951 31.529C14.1391 31.763 13.3651 31.97 12.6001 32.177L10.3051 32.825C8.76606 33.23 7.25406 33.707 5.80506 34.292C4.38306 34.832 3.09606 35.597 1.85406 36.407C0.594059 37.199 -0.566944 38.117 -1.74594 39.008C-2.93394 39.872 -4.08594 40.79 -5.30994 41.6C-6.54294 42.383 -7.80294 43.139 -9.21594 43.724C-14.4989 45.92 -19.0889 49.529 -23.6069 52.958C-27.0449 55.568 -29.3039 56.927 -31.4999 56.81C-33.6959 56.684 -35.8379 55.082 -38.7449 51.905C-41.1389 49.277 -42.1469 47.279 -41.8949 45.11C-41.7599 44.03 -41.3369 42.878 -40.5809 41.645C-39.8069 40.421 -38.7539 39.044 -37.3769 37.487C-31.4909 30.917 -24.0749 25.922 -16.6229 22.169C-9.09894 18.416 -1.63794 15.725 4.89606 12.989Z" fill="#FFAD1F"/>
</svg>
