
<svg width="20" height="20" viewBox="0 0 20 20" fill="3D50E0" xmlns="http://www.w3.org/2000/svg">
<g id="Group 1301">
<rect id="Rectangle 2988" width="20" height="20" rx="2" fill="#3D50E0"/>
<g id="1441">
<mask id="mask0_1292_2265" style="mask-type:alpha" maskUnits="userSpaceOnUse" x="0" y="0" width="20" height="20">
<rect id="Bounding box" width="20" height="20" rx="2" fill="#3D50E0"/>
</mask>
<g mask="url(#mask0_1292_2265)">
<path id="123" d="M4.25 13C3.83579 13 3.5 12.6642 3.5 12.25V9.25C3.5 8.83579 3.16421 8.5 2.75 8.5C2.33579 8.5 2 8.16421 2 7.75C2 7.33579 2.33579 7 2.75 7H3.5C4.32843 7 5 7.67157 5 8.5V12.25C5 12.6642 4.66421 13 4.25 13ZM9 13C7.89543 13 7 12.1046 7 11V10.5C7 10.2167 7.09583 9.97917 7.2875 9.7875C7.47917 9.59583 7.71667 9.5 8 9.5H9.5C9.77614 9.5 10 9.27614 10 9C10 8.72386 9.77614 8.5 9.5 8.5H7.75C7.33579 8.5 7 8.16421 7 7.75C7 7.33579 7.33579 7 7.75 7H10.5C10.7833 7 11.0208 7.09583 11.2125 7.2875C11.4042 7.47917 11.5 7.71667 11.5 8V9.5C11.5 9.78333 11.4042 10.0208 11.2125 10.2125C11.0208 10.4042 10.7833 10.5 10.5 10.5H9C8.72386 10.5 8.5 10.7239 8.5 11C8.5 11.2761 8.72386 11.5 9 11.5H10.75C11.1642 11.5 11.5 11.8358 11.5 12.25C11.5 12.6642 11.1642 13 10.75 13H9ZM13.75 13C13.3358 13 13 12.6642 13 12.25C13 11.8358 13.3358 11.5 13.75 11.5H15.5C15.7761 11.5 16 11.2761 16 11C16 10.7239 15.7761 10.5 15.5 10.5H14.5C14.2239 10.5 14 10.2761 14 10C14 9.72386 14.2239 9.5 14.5 9.5H15.5C15.7761 9.5 16 9.27614 16 9C16 8.72386 15.7761 8.5 15.5 8.5H13.75C13.3358 8.5 13 8.16421 13 7.75C13 7.33579 13.3358 7 13.75 7H16.5C16.7833 7 17.0208 7.09583 17.2125 7.2875C17.4042 7.47917 17.5 7.71667 17.5 8V12C17.5 12.2833 17.4042 12.5208 17.2125 12.7125C17.0208 12.9042 16.7833 13 16.5 13H13.75Z" fill="white"/>
</g>
</g>
</g>
</svg>
