<svg width="113" height="57" viewBox="0 0 113 57" fill="none" xmlns="http://www.w3.org/2000/svg">
<path d="M29.5877 20.1929C27.0564 20.1929 26.1564 21.9929 26.1564 23.6241V24.6366H25.6502C25.2564 24.6366 24.9189 24.9179 24.9189 25.3679C24.9189 25.7616 25.2002 26.0991 25.6502 26.0991H26.1564V33.0741C26.1564 33.4679 26.4377 33.8616 26.9439 33.8616C27.3939 33.8616 27.7314 33.5804 27.7314 33.0741V25.9866H29.2502C29.6439 25.9866 29.9814 25.7054 29.9814 25.2554C29.9814 24.8616 29.7002 24.5241 29.2502 24.5241H27.6189V23.5116C27.6189 22.6116 27.9564 21.4866 29.5877 21.4866C29.9814 21.4866 30.3189 21.2054 30.3189 20.8116C30.2627 20.4741 29.9814 20.1929 29.5877 20.1929ZM35.3252 24.4116C34.3127 24.3554 33.4127 24.8054 32.7939 25.6491V25.2554C32.7939 24.8616 32.5127 24.4679 32.0627 24.4679C31.6127 24.4679 31.2752 24.8054 31.2752 25.2554V33.0741C31.2752 33.4679 31.5564 33.8616 32.0627 33.8616C32.5127 33.8616 32.7939 33.5804 32.7939 33.0741V28.6866C32.7939 26.8866 33.7502 25.8179 35.3252 25.8179C35.7189 25.8179 36.0564 25.5366 36.0564 25.0866C36.0564 24.6929 35.7189 24.4116 35.3252 24.4116ZM44.3252 28.2366C44.3252 27.3929 44.0439 26.4929 43.5939 25.8179C42.8627 24.8616 41.7377 24.2991 40.5002 24.4116C37.9127 24.4116 36.4502 26.1554 36.4502 29.1366C36.4502 32.2304 37.9127 33.9179 40.7252 33.9179C41.8502 33.9741 42.9752 33.5804 43.8189 32.7929C43.9877 32.6804 44.0439 32.5116 44.0439 32.2866C44.0439 31.9491 43.7627 31.6116 43.3689 31.6116C43.2002 31.6116 43.0877 31.6679 42.9752 31.7804C42.3564 32.2866 41.5689 32.5679 40.7252 32.5679C39.0377 32.5679 37.9689 31.4429 37.9127 29.6991H43.3689C44.3252 29.5304 44.3252 28.7429 44.3252 28.2366ZM40.5564 25.7054C42.0752 25.7054 42.8627 26.5491 42.8627 28.2366H37.9689C38.1377 26.6054 39.0377 25.7054 40.5564 25.7054ZM49.2752 28.3491C48.1502 27.9554 47.2502 27.6179 47.2502 26.8304C47.2502 25.9304 48.2627 25.8179 48.8252 25.8179C49.5564 25.7616 50.3439 26.0991 50.8502 26.6054C51.0752 26.8304 51.5814 26.8304 51.8064 26.6054C51.9752 26.4366 52.0314 26.3241 52.0314 26.0991C52.0314 25.9304 51.9752 25.8179 51.8627 25.6491C51.0752 24.8054 50.0064 24.2991 48.8814 24.4116C47.0252 24.4116 45.8439 25.3679 45.8439 26.8304C45.8439 28.6304 47.4752 29.1929 48.8814 29.6991C49.9502 30.0366 50.9064 30.3741 50.9064 31.1616C50.9064 32.2304 49.6689 32.3991 48.9939 32.3991C48.0939 32.4554 47.2502 32.0616 46.6314 31.4991C46.4627 31.3304 46.3502 31.2741 46.1252 31.2741C45.7877 31.2741 45.4502 31.5554 45.4502 31.9491C45.4502 32.1179 45.5064 32.2304 45.6189 32.3991C46.4627 33.4116 47.7002 33.9179 48.9377 33.9179C51.0752 33.9179 52.3127 32.9054 52.3127 31.2741C52.2564 29.3616 50.6814 28.8554 49.2752 28.3491ZM58.0502 24.3554C57.1502 24.2991 56.2502 24.6929 55.6314 25.4241V20.4741C55.6314 20.0804 55.3502 19.6866 54.9002 19.6866C54.5064 19.6866 54.1689 19.9679 54.1689 20.4741V33.0179C54.1689 33.4116 54.4502 33.8054 54.9002 33.8054C55.2939 33.8054 55.6314 33.5241 55.6314 33.0179V28.2929C55.6314 26.5491 56.4189 25.7054 58.0502 25.7054C59.6814 25.7054 60.2439 26.4366 60.2439 28.1241V32.9616C60.2439 33.3554 60.5252 33.7491 60.9752 33.7491C61.3689 33.7491 61.7064 33.4679 61.7064 32.9616V27.8429C61.6502 25.5366 60.4689 24.3554 58.0502 24.3554ZM73.9127 24.4679C73.6314 24.4679 73.2939 24.6929 73.1814 24.9741L71.0439 30.9366L69.3002 24.9741C69.1314 24.5804 68.7377 24.4116 68.3439 24.5241C68.1189 24.5804 68.0064 24.8054 67.8939 24.9741L66.1502 30.9366L64.1252 24.9179C64.0127 24.6366 63.7877 24.4116 63.3939 24.4679C63.0002 24.4679 62.6627 24.7491 62.6627 25.1991C62.6627 25.3116 62.6627 25.4241 62.7189 25.4804L65.5314 33.2429C65.6439 33.5241 65.8689 33.7491 66.2627 33.7491C66.5439 33.7491 66.8814 33.5241 66.9939 33.2429L68.6814 27.5616L70.3689 33.2429C70.4814 33.5241 70.7627 33.7491 71.1002 33.7491C71.3814 33.7491 71.7189 33.5241 71.8314 33.2429L74.6439 25.4804C74.7002 25.3679 74.7002 25.2554 74.7002 25.1991C74.6439 24.8054 74.3064 24.4679 73.9127 24.4679ZM79.3127 24.3554C76.6127 24.3554 75.1502 26.0429 75.1502 29.0804C75.1502 32.1179 76.6127 33.8616 79.3127 33.8616C82.0127 33.8616 83.4752 32.1741 83.4752 29.0804C83.4189 25.9866 81.9564 24.3554 79.3127 24.3554ZM79.3127 32.4554C77.5689 32.4554 76.6127 31.3304 76.6127 29.0804C76.6127 26.8304 77.5127 25.7054 79.3127 25.7054C81.1127 25.7054 81.9564 26.8866 81.9564 29.0804C81.9002 31.2741 81.0564 32.5116 79.3127 32.4554ZM89.1002 24.4116C88.0877 24.3554 87.1877 24.8054 86.5689 25.6491V25.2554C86.5689 24.8616 86.2877 24.4679 85.8377 24.4679C85.4439 24.4679 85.0502 24.7491 85.0502 25.1991V33.0179C85.0502 33.4116 85.3314 33.7491 85.7814 33.7491C86.1752 33.7491 86.5689 33.4679 86.5689 33.0179V28.6866C86.5689 26.8866 87.5252 25.8179 89.1002 25.8179C89.4939 25.8179 89.8314 25.5366 89.8314 25.0866C89.8314 24.6929 89.4939 24.4116 89.1002 24.4116ZM94.7252 28.2366L97.7627 25.8179C97.9877 25.6491 98.0439 25.4804 98.0439 25.1991C98.0439 24.8054 97.7627 24.4679 97.3127 24.4679C97.0877 24.4679 96.9752 24.5241 96.8064 24.6929L92.4752 28.2366V20.4179C92.4752 20.0241 92.1939 19.6304 91.7439 19.6304C91.3502 19.6304 90.9564 19.9116 90.9564 20.3616V32.9054C90.9564 33.2991 91.2377 33.6366 91.6877 33.6366C92.0814 33.6366 92.4189 33.3554 92.4189 32.9054V29.8679L93.4314 29.0804L96.7502 33.3554C96.9189 33.5804 97.1439 33.6929 97.3689 33.6929C97.7627 33.6929 98.1002 33.4116 98.1002 32.9616C98.1002 32.7929 98.0439 32.6241 97.9314 32.5116L94.7252 28.2366ZM103.05 28.3491C101.925 27.9554 101.025 27.6179 101.025 26.8304C101.025 25.9304 102.038 25.8179 102.6 25.8179C103.331 25.7616 104.119 26.0991 104.625 26.6054C104.794 26.7741 104.906 26.8304 105.131 26.8304C105.469 26.7741 105.75 26.4929 105.75 26.0991C105.75 25.9304 105.694 25.8179 105.581 25.6491C104.794 24.8054 103.725 24.2991 102.6 24.4116C100.744 24.4116 99.5627 25.3679 99.5627 26.8304C99.5627 28.6304 101.194 29.1929 102.6 29.6991C103.669 30.0366 104.625 30.3741 104.625 31.1616C104.625 32.2304 103.388 32.3991 102.713 32.3991C101.869 32.4554 100.969 32.1179 100.406 31.4991C100.238 31.3304 100.125 31.2741 99.9002 31.2741C99.5627 31.2741 99.2252 31.5554 99.2252 31.9491C99.2252 32.1179 99.2814 32.2304 99.3939 32.3991C100.238 33.3554 101.475 33.8616 102.769 33.8054C104.906 33.8054 106.144 32.7929 106.144 31.1616C106.031 29.3616 104.456 28.8554 103.05 28.3491Z" fill="#4D4D4D"/>
<path d="M5.0625 32.5688C5.34375 34.3688 6.1875 36.0562 7.48125 37.4062L10.4062 34.4812C10.4062 31.3875 12.0375 28.575 14.6813 27L5.0625 32.5688Z" fill="#9B65C3"/>
<path d="M10.4624 34.4804C8.94365 34.4804 7.48115 34.0866 6.1874 33.2991C5.8499 33.0741 5.45615 32.8491 5.11865 32.5679C5.3999 34.3679 6.24365 36.0554 7.5374 37.4054L10.4624 34.4804Z" fill="#9B65C3"/>
<path d="M10.4626 34.4821L7.5376 37.4071C8.83135 38.7009 10.5188 39.6009 12.3751 39.8259L17.9438 30.1509C16.3688 32.7946 13.5563 34.4821 10.4626 34.4821Z" fill="#BE63C5"/>
<path d="M11.5877 38.7558C10.8564 37.4621 10.4064 35.9433 10.4064 34.4246L7.48145 37.3496C8.7752 38.6433 10.4627 39.5433 12.3189 39.7683C12.0377 39.4871 11.8127 39.1496 11.5877 38.7558Z" fill="#BF63C6"/>
<path d="M21.4314 23.1196L14.7377 27.0009C12.0377 28.5196 8.83145 28.5196 6.13144 27.0009C5.34394 28.2946 4.9502 29.8134 4.9502 31.3321C4.9502 31.7259 5.00645 32.1759 5.0627 32.5696C5.4002 32.8509 5.79394 33.0759 6.13144 33.3009C7.42519 34.0321 8.8877 34.4821 10.4064 34.4821L21.5439 23.3446C21.5439 23.2884 21.4877 23.2321 21.4314 23.1196Z" fill="#3278B1"/>
<path d="M6.13125 33.3C7.425 34.0313 8.8875 34.4812 10.4062 34.4812C10.4062 31.3875 12.0375 28.575 14.6813 27L5.0625 32.5688C5.45625 32.85 5.79375 33.075 6.13125 33.3Z" fill="#3278B2"/>
<path d="M6.13144 26.9991C5.34394 28.2929 4.9502 29.8116 4.9502 31.3304C4.9502 31.7241 5.00645 32.1741 5.0627 32.5679L14.7377 26.9429C12.0939 28.5179 8.83145 28.5179 6.13144 26.9991Z" fill="#45A4EC"/>
<path d="M21.6001 23.3429C21.4313 23.1741 21.3751 23.1179 21.2063 23.0054C20.9251 22.7804 20.4751 22.7241 20.1376 22.7241H13.5563C10.4626 22.7241 7.6501 24.4116 6.13135 27.0554C8.83135 28.5741 12.0376 28.5741 14.7376 27.0554C12.0376 28.5741 10.4626 31.4429 10.4626 34.5366C13.5563 34.5366 16.3688 32.9054 17.9438 30.2054L21.7688 23.5116C21.6563 23.4554 21.6563 23.3991 21.6001 23.3429Z" fill="#19BB7D"/>
<path d="M14.7376 27.0004L21.4313 23.1754C21.3188 23.1192 21.2626 23.0067 21.2063 22.9504L6.13135 27.0004C8.83135 28.5192 12.0938 28.5192 14.7376 27.0004Z" fill="#08C7FB"/>
<path d="M20.0813 22.6692H13.5563C10.4626 22.6692 7.6501 24.3567 6.13135 27.0004L21.1501 22.9504C20.8126 22.7817 20.4751 22.6692 20.0813 22.6692Z" fill="#59F2F6"/>
<path d="M17.9436 30.1504L21.7686 23.4567C21.7123 23.4004 21.6561 23.3442 21.5998 23.2317L10.5186 34.4254C10.5186 35.9442 10.9123 37.4067 11.6998 38.7567C11.9248 39.0942 12.1498 39.4879 12.4311 39.8254C12.8248 39.8817 13.2186 39.9379 13.6686 39.9379C15.1873 39.9379 16.6498 39.5442 17.9998 38.7567C16.3686 36.1129 16.3686 32.7942 17.9436 30.1504Z" fill="#DA3757"/>
<path d="M10.4624 34.4808C10.4624 35.9996 10.8562 37.4621 11.6437 38.8121C11.8687 39.1496 12.0937 39.5433 12.3749 39.8808L17.9437 30.2058C16.3687 32.7933 13.5562 34.4808 10.4624 34.4808Z" fill="#D33C4E"/>
<path d="M17.9437 30.1509L12.375 39.8259C12.7687 39.8821 13.1625 39.9384 13.6125 39.9384C15.1313 39.9384 16.5937 39.5446 17.8875 38.7571C16.3687 36.1134 16.3687 32.7946 17.9437 30.1509Z" fill="#EE5A24"/>
<path d="M21.9374 23.7384C21.7687 23.5134 21.6562 23.2884 21.4312 23.1196L14.7374 27.0009C12.0374 28.5196 10.4624 31.3884 10.4624 34.4821C13.5562 34.4821 16.3687 32.8509 17.9437 30.1509C16.4249 32.8509 16.4249 36.0571 17.9437 38.7571C20.5874 37.2384 22.2187 34.4259 22.2187 31.3884V24.8634C22.2187 24.4696 22.1624 24.0759 21.9374 23.7384Z" fill="#8BDF55"/>
<path d="M21.4312 23.1196L14.7374 27.0009C12.0374 28.5196 10.4624 31.3884 10.4624 34.4821L21.5999 23.3446C21.5437 23.2884 21.4874 23.1759 21.4312 23.1196Z" fill="#25C16F"/>
<path d="M10.4624 34.4817C13.5562 34.4817 16.3687 32.8504 17.9437 30.1504L21.7687 23.4567C21.7124 23.4004 21.6562 23.3442 21.5999 23.2317L10.4624 34.4817Z" fill="#8BDF55"/>
<path d="M21.7688 23.4558L17.9438 30.1496C16.425 32.8496 16.425 36.0558 17.9438 38.7558L21.9937 23.7371C21.8812 23.6246 21.825 23.5683 21.7688 23.4558Z" fill="#FFBB00"/>
<path d="M17.9438 38.7558C20.6438 37.2371 22.2188 34.4246 22.2188 31.3308V24.8621C22.2188 24.4683 22.1063 24.1308 21.9376 23.7371L17.9438 38.7558Z" fill="#FFA800"/>
</svg>
