<svg width="113" height="56" viewBox="0 0 113 56" fill="none" xmlns="http://www.w3.org/2000/svg">
<path d="M35.7236 35.9534V18.8174H38.4116V25.5934C39.2516 24.3614 40.4836 23.7454 42.1636 23.7454C43.6196 23.7454 44.6836 24.1934 45.4676 25.0334C46.2516 25.8734 46.6436 27.0494 46.6436 28.5614V36.0094H43.9556V28.8974C43.9556 26.9374 43.0596 25.9854 41.3236 25.9854C40.4276 25.9854 39.7556 26.2654 39.1956 26.7694C38.6356 27.2734 38.3556 28.0574 38.3556 29.0094V36.0094L35.7236 35.9534Z" fill="#323232"/>
<path d="M59.2442 34.4978C58.0682 35.6738 56.5562 36.2899 54.7642 36.2899C52.9722 36.2899 51.4602 35.6738 50.2842 34.4978C49.1082 33.3218 48.4922 31.8098 48.4922 29.9618C48.4922 28.1138 49.1082 26.6578 50.2842 25.4818C51.4602 24.3058 52.9722 23.7458 54.7642 23.7458C56.5562 23.7458 58.0682 24.3058 59.2442 25.4818C60.4202 26.6578 61.0362 28.1698 61.0362 29.9618C60.9802 31.8098 60.4202 33.3218 59.2442 34.4978ZM52.2442 32.9858C52.8602 33.7139 53.7002 34.1058 54.7642 34.1058C55.8282 34.1058 56.6682 33.7139 57.2842 32.9858C57.9002 32.2578 58.2362 31.2498 58.2362 29.9618C58.2362 28.7298 57.9002 27.7218 57.2842 26.9938C56.6682 26.2658 55.8282 25.8738 54.7642 25.8738C53.7002 25.8738 52.8602 26.2658 52.2442 26.9938C51.6282 27.7218 51.2922 28.7298 51.2922 29.9618C51.2922 31.2498 51.6282 32.2578 52.2442 32.9858Z" fill="#323232"/>
<path d="M67.1392 36.2894C64.6752 36.2894 63.4432 35.0014 63.4432 32.3694V26.2654H61.5952V24.0254H63.4992L64.1152 20.4974H66.1312V24.0254H70.8912V26.2654H66.1312V32.2574C66.1312 33.3774 66.5232 33.9374 67.3632 33.9374C68.0912 33.9374 68.8192 33.2654 69.4352 31.8654L71.5072 32.9294C70.4992 35.1134 69.0432 36.2894 67.1392 36.2894Z" fill="#323232"/>
<path d="M72.3471 41.4423C71.1711 41.4423 70.1631 41.1063 69.4351 40.4343L70.4431 38.3623C70.9471 38.9223 71.4511 39.2023 72.0111 39.2023C72.7391 39.2023 73.1311 38.6983 73.1311 37.7463V24.0263H75.8191V37.8583C75.8191 39.1463 75.4831 40.0423 74.8671 40.6583C74.1391 41.1623 73.3551 41.4423 72.3471 41.4423ZM74.4191 22.0103C73.9711 22.0103 73.5791 21.8423 73.2431 21.5623C73.0751 21.3943 72.9631 21.2263 72.9071 21.0583C72.8511 20.8903 72.7951 20.6663 72.7951 20.4423C72.7951 20.2183 72.8511 19.9943 72.9071 19.8263C72.9631 19.6023 73.1311 19.4343 73.2431 19.3223C73.5791 19.0423 73.9711 18.8743 74.4191 18.8743C74.8671 18.8743 75.2591 19.0423 75.5951 19.3223C75.7631 19.4903 75.8751 19.6583 75.9311 19.8263C75.9871 20.0503 76.0431 20.2183 76.0431 20.4423C76.0431 20.6663 75.9871 20.8343 75.9311 21.0583C75.8751 21.2263 75.7071 21.4503 75.5951 21.5623C75.4271 21.7303 75.2591 21.8423 75.0351 21.8983C74.8111 21.9543 74.6431 22.0103 74.4191 22.0103Z" fill="#323232"/>
<path d="M82.3713 36.289C81.0273 36.289 79.9073 35.953 79.0673 35.281C78.2273 34.609 77.7793 33.657 77.7793 32.537C77.7793 31.473 78.2273 30.577 79.1233 29.849C80.0193 29.121 81.0833 28.729 82.4273 28.729C83.7713 28.729 84.9473 29.177 85.8993 30.017V28.561C85.8993 27.721 85.6753 27.049 85.2273 26.601C84.7793 26.153 84.1633 25.873 83.3793 25.873C81.7553 25.873 80.7473 26.713 80.3553 28.337L77.8913 27.833C78.2273 26.545 78.8433 25.537 79.8513 24.809C80.8033 24.081 82.0353 23.689 83.4913 23.689C85.0593 23.689 86.2913 24.081 87.2433 24.921C88.1393 25.761 88.5873 26.937 88.5873 28.561V35.953H86.0113V34.441C85.0593 35.673 83.8833 36.289 82.3713 36.289ZM82.8193 34.273C83.9953 34.273 85.0033 33.657 85.8433 32.481V32.089C85.0033 31.081 83.9953 30.633 82.8193 30.633C82.1473 30.633 81.5873 30.801 81.1393 31.137C80.9153 31.305 80.7473 31.473 80.6353 31.697C80.5233 31.921 80.4673 32.145 80.4673 32.425C80.4673 32.705 80.5233 32.929 80.6353 33.153C80.7473 33.377 80.9153 33.601 81.0833 33.713C81.5873 34.105 82.1473 34.273 82.8193 34.273Z" fill="#323232"/>
<path d="M91.1079 35.9525V24.0245H93.6839V26.0965C94.3559 24.5845 95.4759 23.8005 97.0999 23.8005C98.0519 23.8005 98.8359 24.1365 99.4519 24.7525C100.068 25.3685 100.404 26.2085 100.404 27.2725C100.404 27.8885 100.292 28.5045 100.068 29.1205L97.6039 28.8965C97.6599 28.5605 97.6599 28.2245 97.7159 27.8885C97.7159 26.6565 97.2119 26.0405 96.2039 26.0405C95.5319 26.0405 94.9159 26.4325 94.4679 27.1605C94.0199 27.8885 93.7399 28.8405 93.7399 30.0725V36.0085H91.1079V35.9525Z" fill="#323232"/>
<path d="M19.0922 25.8169C21.0522 24.6969 23.7962 23.1849 23.7962 18.8169H20.4922C20.4922 21.2809 19.3162 21.9529 17.4682 22.9609C15.5082 24.0809 12.7642 25.5929 12.7642 29.9609H16.0682C16.0682 27.4969 17.3002 26.8249 19.0922 25.8169Z" fill="#FC4221"/>
<path d="M24.8037 24.8085C24.8037 27.2725 23.6277 27.9445 21.7797 28.9525C19.8197 30.0725 17.0757 31.5845 17.0757 35.9525H20.3797C20.3797 33.4885 21.5557 32.8165 23.4037 31.8085C25.3637 30.6885 28.1077 29.1765 28.1077 24.8085H24.8037Z" fill="#FC4221"/>
</svg>
