<svg width="113" height="56" viewBox="0 0 113 56" fill="none" xmlns="http://www.w3.org/2000/svg">
<path d="M9.18023 32.6475V31.0795H4.53223V23.3515H2.74023V32.6475H9.18023ZM13.6602 32.3115C14.0522 32.0315 14.3322 31.6395 14.5562 31.1355V32.5915H16.2362V28.1115C16.2362 27.6635 16.1242 27.2155 15.9002 26.8235C15.6762 26.4315 15.3402 26.1515 14.8922 25.9835C14.4442 25.8155 13.9402 25.6475 13.3242 25.6475C12.9882 25.6475 12.6522 25.7035 12.3722 25.7595C12.0922 25.8155 11.7562 25.9275 11.4762 26.0395C11.1962 26.1515 10.9722 26.2635 10.7482 26.4315L10.8042 27.9995C11.2522 27.7195 11.6442 27.5515 12.0362 27.3835C12.4282 27.2155 12.8762 27.1595 13.3802 27.1595C13.7722 27.1595 14.0522 27.2715 14.2762 27.4395C14.5002 27.6075 14.6122 27.8315 14.6122 28.1675V28.6155H13.1002C12.2042 28.6155 11.4762 28.7835 10.9162 29.1755C10.3562 29.5675 10.1322 30.0715 10.1322 30.7435C10.1322 31.0795 10.2442 31.4715 10.4122 31.7515C10.5802 32.0315 10.8602 32.3115 11.1402 32.4795C11.4762 32.6475 11.8682 32.7595 12.2602 32.7595C12.7642 32.7595 13.2682 32.6475 13.6602 32.3115ZM12.0922 31.1915C11.9242 31.0235 11.8122 30.7995 11.8122 30.5755C11.8122 30.2955 11.9802 30.0155 12.2042 29.8475C12.4842 29.6795 12.8762 29.5675 13.3802 29.5675H14.5002V29.8475C14.5002 30.0715 14.4442 30.2955 14.3322 30.5195C14.2202 30.7435 13.9962 30.9675 13.7722 31.1355C13.4922 31.3035 13.2122 31.4155 12.8762 31.4155C12.5402 31.4155 12.3162 31.3595 12.0922 31.1915ZM21.6682 32.3115C22.0602 31.9755 22.3402 31.4715 22.5642 30.9115V32.6475H24.3002V25.9275H22.5642V29.0635C22.5642 29.5115 22.5082 29.9035 22.3402 30.2955C22.1722 30.6315 22.0042 30.9115 21.7242 31.1355C21.4442 31.3595 21.1082 31.4155 20.7722 31.4155C20.3802 31.4155 20.1002 31.3035 19.8762 31.0795C19.6522 30.8555 19.5402 30.5195 19.5402 30.1275V25.9835H17.8042V30.1835C17.8042 31.0795 18.0282 31.6955 18.4202 32.1995C18.8682 32.6475 19.3722 32.9275 20.1002 32.9275C20.7722 32.8155 21.2762 32.6475 21.6682 32.3115ZM27.8842 32.6475V29.5115C27.8842 29.0635 27.9402 28.6715 28.1082 28.2795C28.2762 27.9435 28.4442 27.6635 28.7242 27.4395C29.0042 27.2155 29.2842 27.1595 29.6202 27.1595C30.0122 27.1595 30.2922 27.2715 30.5162 27.4955C30.7402 27.7195 30.8522 28.0555 30.8522 28.4475V32.6475H32.5882V28.4475C32.5882 27.5515 32.3642 26.9355 31.9722 26.4315C31.5242 25.9835 31.0202 25.7035 30.2922 25.7035C29.6762 25.7035 29.1722 25.8715 28.7802 26.2075C28.3882 26.5435 28.1082 27.0475 27.8842 27.6075V25.8715H26.1482V32.5915L27.8842 32.6475ZM38.3562 32.7595C38.5802 32.7035 38.7482 32.6475 38.9722 32.5915C39.1962 32.5355 39.3642 32.4795 39.5322 32.4235V30.7995C39.2522 30.9675 38.9722 31.0235 38.6362 31.1355C38.3562 31.1915 38.0202 31.2475 37.6842 31.2475C37.2362 31.2475 36.8442 31.1355 36.5082 30.9675C36.2282 30.7995 35.9482 30.5755 35.8362 30.2395C35.6682 29.9035 35.6122 29.5675 35.6122 29.2315C35.6122 28.8955 35.6682 28.5595 35.8362 28.2235C36.0042 27.9435 36.2282 27.7195 36.5082 27.4955C36.8442 27.3275 37.1802 27.2155 37.6282 27.2155C37.9642 27.2155 38.3002 27.2715 38.5802 27.3275C38.9162 27.3835 39.1402 27.4955 39.4202 27.6635V25.9835C39.1962 25.9275 39.0282 25.8155 38.8602 25.8155C38.7482 25.8155 38.5802 25.7595 38.3562 25.7595C38.1322 25.7035 37.9082 25.7035 37.6282 25.7035C36.8442 25.7035 36.1722 25.8715 35.6122 26.1515C35.0522 26.4315 34.6042 26.8795 34.2682 27.4395C33.9322 27.9995 33.8202 28.6155 33.8202 29.2875C33.8202 29.9595 33.9882 30.5755 34.3242 31.1355C34.6602 31.6955 35.1082 32.0875 35.6682 32.3675C36.2282 32.6475 36.9002 32.8155 37.6282 32.8155C37.9082 32.8155 38.1882 32.8155 38.3562 32.7595ZM42.8362 32.6475V29.5115C42.8362 29.0635 42.8922 28.6715 43.0602 28.2795C43.2282 27.9435 43.3962 27.6635 43.6762 27.4395C43.9562 27.2155 44.2362 27.1595 44.5722 27.1595C44.9642 27.1595 45.2442 27.2715 45.4682 27.4955C45.6922 27.7195 45.8042 28.0555 45.8042 28.4475V32.6475H47.5402V28.4475C47.5402 27.5515 47.3162 26.9355 46.9242 26.4315C46.4762 25.9835 45.9722 25.7035 45.2442 25.7035C44.6282 25.7035 44.1242 25.8715 43.7322 26.2075C43.3402 26.5435 43.0602 27.0475 42.8362 27.6075V23.2955H41.1562V32.5915L42.8362 32.6475ZM53.0842 32.6475C54.0922 32.6475 54.9322 32.4795 55.6042 32.0875C56.2762 31.6955 56.8362 31.1915 57.1722 30.4635C57.5642 29.7915 57.7322 28.9515 57.7322 27.9995C57.7322 27.0475 57.5642 26.2635 57.1722 25.5355C56.7802 24.8635 56.2762 24.3035 55.6042 23.9115C54.9322 23.5195 54.0922 23.3515 53.0842 23.3515H49.5002V32.6475H53.0842ZM51.2922 31.0795V24.9195H53.0842C53.9802 24.9195 54.6522 25.1995 55.1562 25.7035C55.6602 26.2635 55.8842 26.9915 55.8842 27.9435C55.8842 28.8955 55.6042 29.6795 55.1562 30.1835C54.6522 30.6875 53.9242 30.9675 53.0842 30.9675L51.2922 31.0795ZM62.2682 32.3115C62.6602 32.0315 62.9402 31.6395 63.1642 31.1355V32.5915H64.8442V28.1115C64.8442 27.6635 64.7322 27.2155 64.5082 26.8235C64.2842 26.4315 63.9482 26.1515 63.5002 25.9835C63.0522 25.7595 62.5482 25.6475 61.9322 25.6475C61.5962 25.6475 61.2602 25.7035 60.9802 25.7595C60.7002 25.8155 60.3642 25.9275 60.0842 26.0395C59.8042 26.1515 59.5802 26.2635 59.3562 26.4315L59.4122 27.9995C59.8602 27.7195 60.2522 27.5515 60.6442 27.3835C61.0362 27.2155 61.4842 27.1595 61.9882 27.1595C62.3802 27.1595 62.6602 27.2715 62.8842 27.4395C63.1082 27.6075 63.2202 27.8315 63.2202 28.1675V28.6155H61.7082C60.8122 28.6155 60.0842 28.7835 59.5242 29.1755C58.9642 29.5675 58.7402 30.1275 58.7402 30.7995C58.7402 31.1355 58.8522 31.5275 59.0202 31.8075C59.1882 32.0875 59.4682 32.3675 59.7482 32.5355C60.0842 32.7035 60.4762 32.8155 60.8682 32.8155C61.4282 32.7595 61.8762 32.6475 62.2682 32.3115ZM60.7562 31.1915C60.5882 31.0235 60.4762 30.7995 60.4762 30.5755C60.4762 30.2955 60.6442 30.0155 60.8682 29.8475C61.1482 29.6795 61.5402 29.5675 62.0442 29.5675H63.1642V29.8475C63.1642 30.0715 63.1082 30.2955 62.9962 30.5195C62.8842 30.7435 62.6602 30.9675 62.4362 31.1355C62.1562 31.3035 61.9322 31.3595 61.5962 31.3595C61.2042 31.4155 60.9242 31.3595 60.7562 31.1915ZM68.3162 32.6475V29.7915C68.3162 29.0635 68.4842 28.5035 68.8202 28.1115C69.1562 27.7195 69.5482 27.5515 70.1082 27.5515C70.3322 27.5515 70.6122 27.6075 70.8362 27.6635V25.9835C70.7242 25.9275 70.6122 25.9275 70.5002 25.9275C70.3882 25.9275 70.2762 25.9275 70.1082 25.9275C69.6602 25.9275 69.3242 26.0955 69.0442 26.3755C68.7642 26.6555 68.5402 27.1035 68.3722 27.6075V25.9835H66.6362V32.7035L68.3162 32.6475ZM73.6362 32.6475V30.4635L74.2522 29.9035L76.2682 32.6475H78.3402L75.4842 28.7275L78.2842 25.9275H76.1002L73.6362 28.2795V23.3515H71.9562V32.6475H73.6362ZM81.0842 32.6475V23.3515H79.3482V32.6475H81.0842ZM83.7162 35.1115C84.3322 35.1115 84.8922 34.9995 85.2842 34.7195C85.6762 34.4395 86.0122 33.9915 86.2922 33.3755L89.3722 25.8715H87.5802L85.7882 30.5755L83.9402 25.8715H82.1482L84.8922 32.5915L84.7242 32.9275C84.6122 33.1515 84.5002 33.3195 84.3322 33.4315C84.1642 33.5435 83.9402 33.5995 83.6602 33.5995H82.2602V35.1115H83.7162ZM102.084 36.2875C101.972 36.2875 101.804 36.2315 101.748 36.0635C101.692 35.9515 101.692 35.7835 101.804 35.6715L105.724 30.2955L98.8922 33.0955C98.8362 33.0955 98.7802 33.1515 98.7242 33.1515C98.5562 33.1515 98.4442 33.0395 98.3882 32.8715C98.3322 32.7035 98.3882 32.5355 98.5562 32.4795L104.548 28.9515L93.9642 28.3355C93.7962 28.3355 93.6282 28.1675 93.6282 27.9435C93.6282 27.7195 93.7962 27.6075 93.9642 27.5515L104.548 26.9355L98.5002 23.5195C98.3882 23.4075 98.2762 23.2395 98.3322 23.1275C98.3882 22.9595 98.5002 22.8475 98.6682 22.8475C98.7242 22.8475 98.7802 22.8475 98.8362 22.9035L105.668 25.7035L101.748 20.3275C101.692 20.2155 101.636 20.0475 101.692 19.9355C101.748 19.8235 101.86 19.7115 102.028 19.7115C102.14 19.7115 102.196 19.7675 102.308 19.8235L110.092 27.5515C110.204 27.6635 110.26 27.8315 110.26 27.9435C110.26 28.0555 110.204 28.2235 110.092 28.3355L102.308 36.0635C102.252 36.2315 102.14 36.2875 102.084 36.2875Z" fill="black"/>
</svg>
