<svg width="20" height="20" viewBox="0 0 20 20" fill="3D50E0" xmlns="http://www.w3.org/2000/svg">
<g id="loyalty">
<mask id="mask0_1292_1913" style="mask-type:alpha" maskUnits="userSpaceOnUse" x="0" y="0" width="20" height="20">
<rect id="Bounding box" width="20" height="20" fill="#3D50E0"/>
</mask>
<g mask="url(#mask0_1292_1913)">
<path id="loyalty_2" d="M10.8337 14.5827L13.7503 11.666C13.9031 11.5132 14.0246 11.3327 14.1149 11.1243C14.2052 10.916 14.2503 10.6938 14.2503 10.4577C14.2503 9.98546 14.0837 9.58268 13.7503 9.24935C13.417 8.91602 13.0142 8.74935 12.542 8.74935C12.2781 8.74935 12.0177 8.82574 11.7607 8.97852C11.5038 9.13129 11.1948 9.38824 10.8337 9.74935C10.417 9.36046 10.0906 9.09657 9.85449 8.95768C9.61838 8.81879 9.37533 8.74935 9.12533 8.74935C8.6531 8.74935 8.25033 8.91602 7.91699 9.24935C7.58366 9.58268 7.41699 9.98546 7.41699 10.4577C7.41699 10.6938 7.46213 10.916 7.55241 11.1243C7.64269 11.3327 7.76421 11.5132 7.91699 11.666L10.8337 14.5827ZM11.8753 17.8327C11.5559 18.1521 11.16 18.3118 10.6878 18.3118C10.2156 18.3118 9.81977 18.1521 9.50033 17.8327L2.16699 10.4993C2.01421 10.3466 1.89269 10.166 1.80241 9.95768C1.71213 9.74935 1.66699 9.52713 1.66699 9.29102V3.33268C1.66699 2.87435 1.83019 2.48199 2.15658 2.1556C2.48296 1.82921 2.87533 1.66602 3.33366 1.66602H9.29199C9.5281 1.66602 9.75033 1.71115 9.95866 1.80143C10.167 1.89171 10.3475 2.01324 10.5003 2.16602L17.8337 9.52018C18.1531 9.83963 18.3128 10.232 18.3128 10.6973C18.3128 11.1625 18.1531 11.5549 17.8337 11.8743L11.8753 17.8327ZM5.41699 6.66602C5.76421 6.66602 6.05935 6.54449 6.30241 6.30143C6.54546 6.05838 6.66699 5.76324 6.66699 5.41602C6.66699 5.06879 6.54546 4.77365 6.30241 4.5306C6.05935 4.28754 5.76421 4.16602 5.41699 4.16602C5.06977 4.16602 4.77463 4.28754 4.53158 4.5306C4.28852 4.77365 4.16699 5.06879 4.16699 5.41602C4.16699 5.76324 4.28852 6.05838 4.53158 6.30143C4.77463 6.54449 5.06977 6.66602 5.41699 6.66602Z" fill="#3D50E0"/>
</g>
</g>
</svg>
